<mxfile host="Electron" agent="Mozilla/5.0 (Macintosh; Intel Mac OS X 10_15_7) AppleWebKit/537.36 (KHTML, like Gecko) draw.io/26.0.9 Chrome/128.0.6613.186 Electron/32.2.5 Safari/537.36" version="26.0.9">
  <diagram name="Seite-1" id="D0O71EZ3dAHFgvD9VpbM">
    <mxGraphModel dx="1646" dy="1906" grid="0" gridSize="10" guides="1" tooltips="1" connect="1" arrows="1" fold="1" page="1" pageScale="1" pageWidth="827" pageHeight="1169" math="0" shadow="0">
      <root>
        <mxCell id="0" />
        <mxCell id="1" parent="0" />
        <mxCell id="2JtB2OqjBHgqzNVbI8b7-13" value="" style="rounded=1;whiteSpace=wrap;html=1;fillColor=none;strokeColor=#000000;arcSize=3;connectable=0;movable=1;" parent="1" vertex="1">
          <mxGeometry x="28" y="704" width="812" height="460" as="geometry" />
        </mxCell>
        <mxCell id="Shn5P3ll9amkj_p7jJET-41" value="" style="group" parent="1" connectable="0" vertex="1">
          <mxGeometry x="320" y="150" width="320" height="200" as="geometry" />
        </mxCell>
        <mxCell id="Shn5P3ll9amkj_p7jJET-42" value="" style="rounded=0;whiteSpace=wrap;html=1;fillColor=none;" parent="Shn5P3ll9amkj_p7jJET-41" vertex="1">
          <mxGeometry x="30" width="250" height="190" as="geometry" />
        </mxCell>
        <mxCell id="Shn5P3ll9amkj_p7jJET-43" value="&lt;font style=&quot;font-size: 14px;&quot;&gt;JAS-Estimation&lt;/font&gt;" style="rounded=0;whiteSpace=wrap;html=1;fontSize=20;" parent="Shn5P3ll9amkj_p7jJET-41" vertex="1">
          <mxGeometry x="180" width="100" height="30" as="geometry" />
        </mxCell>
        <mxCell id="Shn5P3ll9amkj_p7jJET-45" value="" style="endArrow=classic;html=1;rounded=0;entryX=0.5;entryY=0;entryDx=0;entryDy=0;exitX=0.5;exitY=1;exitDx=0;exitDy=0;" parent="Shn5P3ll9amkj_p7jJET-41" source="Shn5P3ll9amkj_p7jJET-91" target="Gq9ENAf4GL5btWEFlGum-12" edge="1">
          <mxGeometry width="50" height="50" relative="1" as="geometry">
            <mxPoint x="150" y="60" as="sourcePoint" />
            <mxPoint x="149.99999999999977" y="100" as="targetPoint" />
          </mxGeometry>
        </mxCell>
        <mxCell id="Shn5P3ll9amkj_p7jJET-82" value="" style="group;fillColor=default;fontSize=20;" parent="Shn5P3ll9amkj_p7jJET-41" connectable="0" vertex="1">
          <mxGeometry x="44.5" y="104.5" width="50" height="25" as="geometry" />
        </mxCell>
        <mxCell id="Shn5P3ll9amkj_p7jJET-83" value="" style="endArrow=none;html=1;rounded=0;entryX=1;entryY=0;entryDx=0;entryDy=0;" parent="Shn5P3ll9amkj_p7jJET-82" target="Shn5P3ll9amkj_p7jJET-84" edge="1">
          <mxGeometry width="50" height="50" relative="1" as="geometry">
            <mxPoint y="4.166666666666667" as="sourcePoint" />
            <mxPoint x="50" y="4.166666666666667" as="targetPoint" />
            <Array as="points">
              <mxPoint x="25.38461538461538" y="4" />
              <mxPoint x="27.692307692307683" y="1.5" />
              <mxPoint x="40" y="2" />
              <mxPoint x="46.92307692307692" y="1.5" />
            </Array>
          </mxGeometry>
        </mxCell>
        <mxCell id="Shn5P3ll9amkj_p7jJET-84" value="&lt;font style=&quot;font-size: 12px;&quot;&gt;IFE&lt;/font&gt;" style="shape=partialRectangle;whiteSpace=wrap;html=1;bottom=1;right=1;left=1;top=0;fillColor=none;routingCenterX=-0.5;fontSize=18;" parent="Shn5P3ll9amkj_p7jJET-82" vertex="1">
          <mxGeometry y="5.277777777777778" width="50" height="20.833333333333336" as="geometry" />
        </mxCell>
        <mxCell id="Shn5P3ll9amkj_p7jJET-85" value="" style="group;fillColor=default;fontSize=20;" parent="Shn5P3ll9amkj_p7jJET-41" connectable="0" vertex="1">
          <mxGeometry x="204" y="104.5" width="50" height="25" as="geometry" />
        </mxCell>
        <mxCell id="Shn5P3ll9amkj_p7jJET-86" value="" style="endArrow=none;html=1;rounded=0;entryX=1;entryY=0;entryDx=0;entryDy=0;" parent="Shn5P3ll9amkj_p7jJET-85" target="Shn5P3ll9amkj_p7jJET-87" edge="1">
          <mxGeometry width="50" height="50" relative="1" as="geometry">
            <mxPoint y="4.166666666666667" as="sourcePoint" />
            <mxPoint x="50" y="4.166666666666667" as="targetPoint" />
            <Array as="points">
              <mxPoint x="25.38461538461538" y="4" />
              <mxPoint x="27.692307692307683" y="1.5" />
              <mxPoint x="40" y="2" />
              <mxPoint x="46.92307692307692" y="1.5" />
            </Array>
          </mxGeometry>
        </mxCell>
        <mxCell id="Shn5P3ll9amkj_p7jJET-87" value="&lt;font style=&quot;font-size: 12px;&quot;&gt;ISE&lt;/font&gt;" style="shape=partialRectangle;whiteSpace=wrap;html=1;bottom=1;right=1;left=1;top=0;fillColor=none;routingCenterX=-0.5;fontSize=18;" parent="Shn5P3ll9amkj_p7jJET-85" vertex="1">
          <mxGeometry y="5.277777777777778" width="50" height="20.833333333333336" as="geometry" />
        </mxCell>
        <mxCell id="Shn5P3ll9amkj_p7jJET-89" value="" style="group;fillColor=default;fontSize=20;" parent="Shn5P3ll9amkj_p7jJET-41" connectable="0" vertex="1">
          <mxGeometry x="124" y="28" width="50" height="25" as="geometry" />
        </mxCell>
        <mxCell id="Shn5P3ll9amkj_p7jJET-90" value="" style="endArrow=none;html=1;rounded=0;entryX=1;entryY=0;entryDx=0;entryDy=0;" parent="Shn5P3ll9amkj_p7jJET-89" target="Shn5P3ll9amkj_p7jJET-91" edge="1">
          <mxGeometry width="50" height="50" relative="1" as="geometry">
            <mxPoint y="4.166666666666667" as="sourcePoint" />
            <mxPoint x="50" y="4.166666666666667" as="targetPoint" />
            <Array as="points">
              <mxPoint x="25.38461538461538" y="4" />
              <mxPoint x="27.692307692307683" y="1.5" />
              <mxPoint x="40" y="2" />
              <mxPoint x="46.92307692307692" y="1.5" />
            </Array>
          </mxGeometry>
        </mxCell>
        <mxCell id="Shn5P3ll9amkj_p7jJET-91" value="&lt;font style=&quot;font-size: 12px;&quot;&gt;SI&lt;/font&gt;" style="shape=partialRectangle;whiteSpace=wrap;html=1;bottom=1;right=1;left=1;top=0;fillColor=none;routingCenterX=-0.5;fontSize=18;" parent="Shn5P3ll9amkj_p7jJET-89" vertex="1">
          <mxGeometry y="5.277777777777778" width="50" height="20.833333333333336" as="geometry" />
        </mxCell>
        <mxCell id="Shn5P3ll9amkj_p7jJET-96" value="" style="endArrow=blockThin;html=1;rounded=0;labelPosition=center;verticalLabelPosition=top;align=center;verticalAlign=bottom;spacingBottom=3;strokeWidth=1;endFill=1;exitX=1;exitY=0.5;exitDx=0;exitDy=0;labelBackgroundColor=none;entryX=0;entryY=0.5;entryDx=0;entryDy=0;" parent="Shn5P3ll9amkj_p7jJET-41" source="Shn5P3ll9amkj_p7jJET-84" target="Gq9ENAf4GL5btWEFlGum-12" edge="1">
          <mxGeometry width="50" height="50" relative="1" as="geometry">
            <mxPoint x="94.5" y="119.66000000000003" as="sourcePoint" />
            <mxPoint x="130" y="120" as="targetPoint" />
          </mxGeometry>
        </mxCell>
        <mxCell id="Shn5P3ll9amkj_p7jJET-98" value="&lt;font style=&quot;font-size: 14px;&quot;&gt;p&lt;/font&gt;" style="endArrow=blockThin;html=1;rounded=0;labelPosition=center;verticalLabelPosition=top;align=center;verticalAlign=bottom;spacingBottom=3;strokeWidth=1;endFill=1;exitX=1;exitY=0.5;exitDx=0;exitDy=0;labelBackgroundColor=none;entryX=0;entryY=0.5;entryDx=0;entryDy=0;" parent="Shn5P3ll9amkj_p7jJET-41" source="Gq9ENAf4GL5btWEFlGum-12" target="Shn5P3ll9amkj_p7jJET-87" edge="1">
          <mxGeometry width="50" height="50" relative="1" as="geometry">
            <mxPoint x="169.99999999999977" y="120" as="sourcePoint" />
            <mxPoint x="200" y="120" as="targetPoint" />
          </mxGeometry>
        </mxCell>
        <mxCell id="Gq9ENAf4GL5btWEFlGum-12" value="&lt;span style=&quot;color: rgb(32, 33, 34); font-family: sans-serif; font-size: 14px; text-align: left; background-color: rgb(255, 255, 255);&quot;&gt;Î¨&lt;/span&gt;" style="rhombus;whiteSpace=wrap;html=1;strokeColor=default;fillColor=default;fontColor=default;fontSize=15;" parent="Shn5P3ll9amkj_p7jJET-41" vertex="1">
          <mxGeometry x="127.5" y="100" width="42.5" height="40" as="geometry" />
        </mxCell>
        <mxCell id="Shn5P3ll9amkj_p7jJET-48" value="&lt;font style=&quot;font-size: 10px;&quot;&gt;&quot;Individual Distribution of independent first estimate of a quantity&quot;&lt;/font&gt;" style="rounded=0;whiteSpace=wrap;html=1;fillColor=#FFFFFF;" parent="1" vertex="1">
          <mxGeometry x="329.5" y="362" width="120" height="60" as="geometry" />
        </mxCell>
        <mxCell id="Shn5P3ll9amkj_p7jJET-52" value="&lt;font style=&quot;font-size: 10px;&quot;&gt;&quot;Individual Distribution of revised second estimate of a quantity&quot;&lt;/font&gt;" style="rounded=0;whiteSpace=wrap;html=1;fillColor=#FFFFFF;" parent="1" vertex="1">
          <mxGeometry x="489" y="362" width="120" height="60" as="geometry" />
        </mxCell>
        <mxCell id="Shn5P3ll9amkj_p7jJET-51" value="&lt;font style=&quot;font-size: 14px;&quot;&gt;n&lt;/font&gt;" style="endArrow=blockThin;html=1;rounded=0;labelPosition=right;verticalLabelPosition=middle;align=left;verticalAlign=middle;strokeWidth=1;endFill=1;entryX=0.5;entryY=0;entryDx=0;entryDy=0;labelBackgroundColor=none;" parent="1" source="Shn5P3ll9amkj_p7jJET-87" target="Shn5P3ll9amkj_p7jJET-52" edge="1">
          <mxGeometry width="50" height="50" relative="1" as="geometry">
            <mxPoint x="550" y="290" as="sourcePoint" />
            <mxPoint x="549.71" y="360" as="targetPoint" />
          </mxGeometry>
        </mxCell>
        <mxCell id="Shn5P3ll9amkj_p7jJET-58" value="&lt;font style=&quot;font-size: 14px;&quot;&gt;n&lt;/font&gt;" style="endArrow=blockThin;html=1;rounded=0;labelPosition=center;verticalLabelPosition=top;align=center;verticalAlign=bottom;strokeWidth=1;endFill=1;exitX=0;exitY=0.124;exitDx=0;exitDy=0;exitPerimeter=0;entryX=1;entryY=0.5;entryDx=0;entryDy=0;" parent="1" source="Shn5P3ll9amkj_p7jJET-42" target="Shn5P3ll9amkj_p7jJET-59" edge="1">
          <mxGeometry width="50" height="50" relative="1" as="geometry">
            <mxPoint x="350" y="170" as="sourcePoint" />
            <mxPoint x="250" y="170" as="targetPoint" />
          </mxGeometry>
        </mxCell>
        <mxCell id="Shn5P3ll9amkj_p7jJET-59" value="&lt;font style=&quot;font-size: 10px;&quot;&gt;&quot;The estimation process for each judge in a group following the judge-advisor system (JAS). Presented with advice (social information), a judge revises his/her first estimate. The estimation task is objective (a quantity). Incentives for individual accuracy are provided.&quot;&lt;/font&gt;" style="rounded=0;whiteSpace=wrap;html=1;fillColor=#FFFFFF;" parent="1" vertex="1">
          <mxGeometry x="20" y="128" width="230" height="90" as="geometry" />
        </mxCell>
        <mxCell id="Gq9ENAf4GL5btWEFlGum-8" value="&lt;div&gt;&lt;span lang=&quot;und-Grek&quot; class=&quot;Grek&quot;&gt;Ï = For one group in a set of different groups&lt;/span&gt;&lt;/div&gt;&lt;div&gt;&lt;span lang=&quot;und-Grek&quot; class=&quot;Grek&quot;&gt;Ï = For one task in a set of different tasks&lt;/span&gt;&lt;/div&gt;&lt;div&gt;&lt;span lang=&quot;und-Grek&quot; class=&quot;Grek&quot;&gt;Î¹ = For one person in a set of different persons in the respective group&lt;/span&gt;&lt;/div&gt;" style="text;html=1;align=left;verticalAlign=middle;whiteSpace=wrap;rounded=0;fontSize=10;" parent="1" vertex="1">
          <mxGeometry x="855" y="704" width="380" height="30" as="geometry" />
        </mxCell>
        <mxCell id="Shn5P3ll9amkj_p7jJET-102" value="" style="group;fillColor=default;fontSize=20;" parent="1" connectable="0" vertex="1">
          <mxGeometry x="640" y="256" width="50" height="25" as="geometry" />
        </mxCell>
        <mxCell id="Shn5P3ll9amkj_p7jJET-103" value="" style="endArrow=none;html=1;rounded=0;entryX=1;entryY=0;entryDx=0;entryDy=0;" parent="Shn5P3ll9amkj_p7jJET-102" target="Shn5P3ll9amkj_p7jJET-104" edge="1">
          <mxGeometry width="50" height="50" relative="1" as="geometry">
            <mxPoint y="4.166666666666667" as="sourcePoint" />
            <mxPoint x="50" y="4.166666666666667" as="targetPoint" />
            <Array as="points">
              <mxPoint x="25.38461538461538" y="4" />
              <mxPoint x="27.692307692307683" y="1.5" />
              <mxPoint x="46.92307692307692" y="1.5" />
            </Array>
          </mxGeometry>
        </mxCell>
        <mxCell id="Shn5P3ll9amkj_p7jJET-104" value="&lt;font style=&quot;font-size: 12px;&quot;&gt;GSE&lt;/font&gt;" style="shape=partialRectangle;whiteSpace=wrap;html=1;bottom=1;right=1;left=1;top=0;fillColor=none;routingCenterX=-0.5;fontSize=18;" parent="Shn5P3ll9amkj_p7jJET-102" vertex="1">
          <mxGeometry y="4.277777777777778" width="50" height="20.833333333333336" as="geometry" />
        </mxCell>
        <mxCell id="Shn5P3ll9amkj_p7jJET-105" value="&lt;font style=&quot;font-size: 14px;&quot;&gt;p&lt;/font&gt;" style="endArrow=blockThin;html=1;rounded=0;labelPosition=center;verticalLabelPosition=top;align=center;verticalAlign=bottom;spacingBottom=3;strokeWidth=1;endFill=1;entryX=0;entryY=0.5;entryDx=0;entryDy=0;exitX=1;exitY=0.5;exitDx=0;exitDy=0;labelBackgroundColor=none;startArrow=blockThin;startFill=1;" parent="1" source="Shn5P3ll9amkj_p7jJET-87" target="Shn5P3ll9amkj_p7jJET-104" edge="1">
          <mxGeometry width="50" height="50" relative="1" as="geometry">
            <mxPoint x="580" y="276" as="sourcePoint" />
            <mxPoint x="581" y="305.83000000000004" as="targetPoint" />
          </mxGeometry>
        </mxCell>
        <mxCell id="Shn5P3ll9amkj_p7jJET-106" value="" style="group;fillColor=default;fontSize=20;" parent="1" connectable="0" vertex="1">
          <mxGeometry x="260" y="254" width="50" height="25" as="geometry" />
        </mxCell>
        <mxCell id="Shn5P3ll9amkj_p7jJET-107" value="" style="endArrow=none;html=1;rounded=0;entryX=1;entryY=0;entryDx=0;entryDy=0;" parent="Shn5P3ll9amkj_p7jJET-106" target="Shn5P3ll9amkj_p7jJET-108" edge="1">
          <mxGeometry width="50" height="50" relative="1" as="geometry">
            <mxPoint y="4.166666666666667" as="sourcePoint" />
            <mxPoint x="50" y="4.166666666666667" as="targetPoint" />
            <Array as="points">
              <mxPoint x="25.38461538461538" y="4" />
              <mxPoint x="27.692307692307683" y="1.5" />
              <mxPoint x="40" y="2" />
              <mxPoint x="46.92307692307692" y="1.5" />
            </Array>
          </mxGeometry>
        </mxCell>
        <mxCell id="Shn5P3ll9amkj_p7jJET-108" value="&lt;font style=&quot;font-size: 12px;&quot;&gt;GFE&lt;/font&gt;" style="shape=partialRectangle;whiteSpace=wrap;html=1;bottom=1;right=1;left=1;top=0;fillColor=none;routingCenterX=-0.5;fontSize=18;" parent="Shn5P3ll9amkj_p7jJET-106" vertex="1">
          <mxGeometry y="5.277777777777778" width="50" height="20.833333333333336" as="geometry" />
        </mxCell>
        <mxCell id="Shn5P3ll9amkj_p7jJET-109" value="&lt;font style=&quot;font-size: 14px;&quot;&gt;p&lt;/font&gt;" style="endArrow=blockThin;html=1;rounded=0;labelPosition=center;verticalLabelPosition=top;align=center;verticalAlign=bottom;spacingBottom=3;strokeWidth=1;endFill=1;entryX=1;entryY=0.5;entryDx=0;entryDy=0;exitX=0;exitY=0.5;exitDx=0;exitDy=0;labelBackgroundColor=none;startArrow=blockThin;startFill=1;" parent="1" source="Shn5P3ll9amkj_p7jJET-84" target="Shn5P3ll9amkj_p7jJET-108" edge="1">
          <mxGeometry width="50" height="50" relative="1" as="geometry">
            <mxPoint x="362" y="266" as="sourcePoint" />
            <mxPoint x="520" y="268" as="targetPoint" />
          </mxGeometry>
        </mxCell>
        <mxCell id="Shn5P3ll9amkj_p7jJET-47" value="&lt;font style=&quot;font-size: 14px;&quot;&gt;n&lt;/font&gt;" style="endArrow=blockThin;html=1;rounded=0;labelPosition=right;verticalLabelPosition=middle;align=left;verticalAlign=middle;strokeWidth=1;endFill=1;exitX=0.5;exitY=1;exitDx=0;exitDy=0;entryX=0.5;entryY=0;entryDx=0;entryDy=0;labelBackgroundColor=none;" parent="1" source="Shn5P3ll9amkj_p7jJET-84" target="Shn5P3ll9amkj_p7jJET-48" edge="1">
          <mxGeometry width="50" height="50" relative="1" as="geometry">
            <mxPoint x="390" y="290" as="sourcePoint" />
            <mxPoint x="390" y="360" as="targetPoint" />
          </mxGeometry>
        </mxCell>
        <mxCell id="Shn5P3ll9amkj_p7jJET-53" value="&lt;font style=&quot;font-size: 14px;&quot;&gt;n&lt;/font&gt;" style="endArrow=blockThin;html=1;rounded=0;labelPosition=right;verticalLabelPosition=middle;align=left;verticalAlign=middle;strokeWidth=1;endFill=1;exitX=0.5;exitY=0;exitDx=0;exitDy=0;entryX=0.5;entryY=1;entryDx=0;entryDy=0;" parent="1" source="Shn5P3ll9amkj_p7jJET-91" edge="1">
          <mxGeometry width="50" height="50" relative="1" as="geometry">
            <mxPoint x="470" y="170" as="sourcePoint" />
            <mxPoint x="469" y="90" as="targetPoint" />
          </mxGeometry>
        </mxCell>
        <mxCell id="Shn5P3ll9amkj_p7jJET-114" value="&lt;b&gt;&lt;font style=&quot;font-size: 13px;&quot;&gt;The Theory / Revision Process&lt;/font&gt;&lt;/b&gt;" style="text;html=1;align=center;verticalAlign=middle;resizable=0;points=[];autosize=1;strokeColor=none;fillColor=none;" parent="1" vertex="1">
          <mxGeometry x="23" y="634" width="210" height="30" as="geometry" />
        </mxCell>
        <mxCell id="Shn5P3ll9amkj_p7jJET-115" value="&lt;b&gt;&lt;font style=&quot;font-size: 13px;&quot;&gt;The Phenomenon&lt;/font&gt;&lt;/b&gt;" style="text;html=1;align=center;verticalAlign=middle;resizable=0;points=[];autosize=1;strokeColor=none;fillColor=none;" parent="1" vertex="1">
          <mxGeometry x="20" y="30" width="130" height="30" as="geometry" />
        </mxCell>
        <mxCell id="Shn5P3ll9amkj_p7jJET-116" value="Analysts: Simeon,&lt;div&gt;Thomas, Benedikt&lt;/div&gt;" style="text;html=1;align=center;verticalAlign=middle;resizable=0;points=[];autosize=1;strokeColor=none;fillColor=none;" parent="1" vertex="1">
          <mxGeometry x="684" y="25" width="120" height="40" as="geometry" />
        </mxCell>
        <mxCell id="UKQC7e8_5x6JFnvkk0Rx-1" value="&quot;Distribution of First Estimates in the Group&quot;" style="rounded=0;whiteSpace=wrap;html=1;fillColor=#FFFFFF;" parent="1" vertex="1">
          <mxGeometry x="40" y="244.5" width="150" height="50" as="geometry" />
        </mxCell>
        <mxCell id="UKQC7e8_5x6JFnvkk0Rx-3" value="&quot;Distribution of Second Estimates in the Group&quot;" style="rounded=0;whiteSpace=wrap;html=1;fillColor=#FFFFFF;" parent="1" vertex="1">
          <mxGeometry x="760" y="245.69" width="150" height="50" as="geometry" />
        </mxCell>
        <mxCell id="EcNodhHBkDYcohw0A-AJ-27" value="&lt;font style=&quot;font-size: 14px;&quot;&gt;n&lt;/font&gt;" style="endArrow=blockThin;html=1;rounded=0;labelPosition=center;verticalLabelPosition=top;align=center;verticalAlign=bottom;strokeWidth=1;endFill=1;entryX=0;entryY=0.5;entryDx=0;entryDy=0;exitX=1;exitY=0.5;exitDx=0;exitDy=0;" parent="1" source="Shn5P3ll9amkj_p7jJET-104" target="UKQC7e8_5x6JFnvkk0Rx-3" edge="1">
          <mxGeometry width="50" height="50" relative="1" as="geometry">
            <mxPoint x="730" y="280" as="sourcePoint" />
            <mxPoint x="910" y="340" as="targetPoint" />
          </mxGeometry>
        </mxCell>
        <mxCell id="EcNodhHBkDYcohw0A-AJ-28" value="&lt;font style=&quot;font-size: 14px;&quot;&gt;n&lt;/font&gt;" style="endArrow=blockThin;html=1;rounded=0;labelPosition=center;verticalLabelPosition=top;align=center;verticalAlign=bottom;strokeWidth=1;endFill=1;exitX=0;exitY=0.5;exitDx=0;exitDy=0;entryX=1;entryY=0.5;entryDx=0;entryDy=0;" parent="1" source="Shn5P3ll9amkj_p7jJET-108" target="UKQC7e8_5x6JFnvkk0Rx-1" edge="1">
          <mxGeometry width="50" height="50" relative="1" as="geometry">
            <mxPoint x="90" y="340" as="sourcePoint" />
            <mxPoint x="250" y="340" as="targetPoint" />
          </mxGeometry>
        </mxCell>
        <mxCell id="XB47ITi09C_r8p_tS3dC-8" value="" style="rounded=1;whiteSpace=wrap;html=1;strokeColor=#000000;fillColor=none;arcSize=3;connectable=0;movable=1;" parent="1" vertex="1">
          <mxGeometry x="145" y="754" width="577" height="300" as="geometry" />
        </mxCell>
        <mxCell id="XB47ITi09C_r8p_tS3dC-9" value="Individual Estimation(&lt;span class=&quot;Grek&quot; lang=&quot;und-Grek&quot;&gt;Î¹&lt;/span&gt;)" style="rounded=0;whiteSpace=wrap;html=1;fontSize=12;" parent="1" vertex="1">
          <mxGeometry x="592" y="754" width="130" height="20" as="geometry" />
        </mxCell>
        <mxCell id="XB47ITi09C_r8p_tS3dC-11" value="" style="group;rounded=1;arcSize=8;movable=1;connectable=0;" parent="1" vertex="1" connectable="0">
          <mxGeometry x="297" y="837" width="330" height="179" as="geometry" />
        </mxCell>
        <mxCell id="XB47ITi09C_r8p_tS3dC-12" value="" style="rounded=1;whiteSpace=wrap;html=1;fillColor=none;arcSize=5;connectable=0;movable=1;" parent="XB47ITi09C_r8p_tS3dC-11" vertex="1">
          <mxGeometry width="330" height="150" as="geometry" />
        </mxCell>
        <mxCell id="XB47ITi09C_r8p_tS3dC-42" value="CONF" style="rounded=0;whiteSpace=wrap;html=1;" parent="XB47ITi09C_r8p_tS3dC-11" vertex="1">
          <mxGeometry x="13" y="56" width="60" height="40" as="geometry" />
        </mxCell>
        <mxCell id="XB47ITi09C_r8p_tS3dC-43" value="F1" style="rhombus;whiteSpace=wrap;html=1;" parent="XB47ITi09C_r8p_tS3dC-11" vertex="1">
          <mxGeometry x="110" y="56" width="40" height="38" as="geometry" />
        </mxCell>
        <mxCell id="XB47ITi09C_r8p_tS3dC-45" value="" style="endArrow=blockThin;html=1;rounded=0;strokeWidth=1;endFill=1;exitX=1;exitY=0.5;exitDx=0;exitDy=0;entryX=0.07;entryY=0.525;entryDx=0;entryDy=0;entryPerimeter=0;" parent="XB47ITi09C_r8p_tS3dC-11" source="XB47ITi09C_r8p_tS3dC-42" target="XB47ITi09C_r8p_tS3dC-43" edge="1">
          <mxGeometry width="50" height="50" relative="1" as="geometry">
            <mxPoint x="80" y="110" as="sourcePoint" />
            <mxPoint x="120" y="137" as="targetPoint" />
          </mxGeometry>
        </mxCell>
        <mxCell id="EQBwjj2KJEkhYj3dMZCi-1" value="F2" style="rhombus;whiteSpace=wrap;html=1;" parent="XB47ITi09C_r8p_tS3dC-11" vertex="1">
          <mxGeometry x="280" y="57" width="40" height="38" as="geometry" />
        </mxCell>
        <mxCell id="EQBwjj2KJEkhYj3dMZCi-2" value="" style="endArrow=blockThin;html=1;rounded=0;strokeWidth=1;endFill=1;exitX=1;exitY=0.5;exitDx=0;exitDy=0;entryX=0;entryY=0.5;entryDx=0;entryDy=0;" parent="XB47ITi09C_r8p_tS3dC-11" target="EQBwjj2KJEkhYj3dMZCi-1" edge="1">
          <mxGeometry width="50" height="50" relative="1" as="geometry">
            <mxPoint x="240" y="76" as="sourcePoint" />
            <mxPoint x="185" y="86" as="targetPoint" />
          </mxGeometry>
        </mxCell>
        <mxCell id="2JtB2OqjBHgqzNVbI8b7-4" value="WOA" style="rounded=0;whiteSpace=wrap;html=1;" parent="XB47ITi09C_r8p_tS3dC-11" vertex="1">
          <mxGeometry x="186" y="55" width="70" height="40" as="geometry" />
        </mxCell>
        <mxCell id="2JtB2OqjBHgqzNVbI8b7-6" value="&lt;span class=&quot;Grek&quot; lang=&quot;und-Grek&quot;&gt;&lt;b&gt;Î¨&lt;/b&gt;&lt;/span&gt;" style="rounded=0;whiteSpace=wrap;html=1;" parent="XB47ITi09C_r8p_tS3dC-11" vertex="1">
          <mxGeometry x="290" width="40" height="20" as="geometry" />
        </mxCell>
        <mxCell id="2JtB2OqjBHgqzNVbI8b7-27" value="&lt;font&gt;p&lt;/font&gt;" style="endArrow=blockThin;html=1;rounded=0;labelPosition=center;verticalLabelPosition=top;align=center;verticalAlign=bottom;spacingBottom=3;strokeWidth=1;endFill=1;exitX=1;exitY=0.5;exitDx=0;exitDy=0;entryX=0;entryY=0.5;entryDx=0;entryDy=0;fontSize=14;" parent="XB47ITi09C_r8p_tS3dC-11" source="XB47ITi09C_r8p_tS3dC-43" target="2JtB2OqjBHgqzNVbI8b7-4" edge="1">
          <mxGeometry width="50" height="50" relative="1" as="geometry">
            <mxPoint x="153" y="39.5" as="sourcePoint" />
            <mxPoint x="313" y="39.5" as="targetPoint" />
          </mxGeometry>
        </mxCell>
        <mxCell id="XB47ITi09C_r8p_tS3dC-15" value="" style="group;fillColor=default;fontSize=20;" parent="1" connectable="0" vertex="1">
          <mxGeometry x="328" y="786" width="50" height="25" as="geometry" />
        </mxCell>
        <mxCell id="XB47ITi09C_r8p_tS3dC-16" value="" style="endArrow=none;html=1;rounded=0;entryX=1;entryY=0;entryDx=0;entryDy=0;" parent="XB47ITi09C_r8p_tS3dC-15" target="XB47ITi09C_r8p_tS3dC-17" edge="1">
          <mxGeometry width="50" height="50" relative="1" as="geometry">
            <mxPoint y="4.166666666666667" as="sourcePoint" />
            <mxPoint x="50" y="4.166666666666667" as="targetPoint" />
            <Array as="points">
              <mxPoint x="25.38461538461538" y="4" />
              <mxPoint x="27.692307692307683" y="1.5" />
              <mxPoint x="46.92307692307692" y="1.5" />
            </Array>
          </mxGeometry>
        </mxCell>
        <mxCell id="XB47ITi09C_r8p_tS3dC-17" value="&lt;font style=&quot;font-size: 12px;&quot;&gt;SI&lt;/font&gt;" style="shape=partialRectangle;whiteSpace=wrap;html=1;bottom=1;right=1;left=1;top=0;fillColor=none;routingCenterX=-0.5;fontSize=18;" parent="XB47ITi09C_r8p_tS3dC-15" vertex="1">
          <mxGeometry y="5.277777777777778" width="50" height="20.833333333333336" as="geometry" />
        </mxCell>
        <mxCell id="XB47ITi09C_r8p_tS3dC-35" value="" style="group;fillColor=default;fontSize=20;" parent="1" connectable="0" vertex="1">
          <mxGeometry x="328" y="1013.5" width="50" height="25" as="geometry" />
        </mxCell>
        <mxCell id="XB47ITi09C_r8p_tS3dC-36" value="" style="endArrow=none;html=1;rounded=0;entryX=1;entryY=0;entryDx=0;entryDy=0;" parent="XB47ITi09C_r8p_tS3dC-35" target="XB47ITi09C_r8p_tS3dC-37" edge="1">
          <mxGeometry width="50" height="50" relative="1" as="geometry">
            <mxPoint y="4.166666666666667" as="sourcePoint" />
            <mxPoint x="50" y="4.166666666666667" as="targetPoint" />
            <Array as="points">
              <mxPoint x="25.38461538461538" y="4" />
              <mxPoint x="27.692307692307683" y="1.5" />
              <mxPoint x="46.92307692307692" y="1.5" />
            </Array>
          </mxGeometry>
        </mxCell>
        <mxCell id="XB47ITi09C_r8p_tS3dC-37" value="&lt;font style=&quot;font-size: 12px;&quot;&gt;IFE&lt;/font&gt;" style="shape=partialRectangle;whiteSpace=wrap;html=1;bottom=1;right=1;left=1;top=0;fillColor=none;routingCenterX=-0.5;fontSize=18;" parent="XB47ITi09C_r8p_tS3dC-35" vertex="1">
          <mxGeometry y="5.277777777777778" width="50" height="20.833333333333336" as="geometry" />
        </mxCell>
        <mxCell id="XB47ITi09C_r8p_tS3dC-47" value="" style="endArrow=blockThin;html=1;rounded=0;strokeWidth=1;endFill=1;exitX=0.5;exitY=1;exitDx=0;exitDy=0;entryX=0.5;entryY=0;entryDx=0;entryDy=0;" parent="1" source="XB47ITi09C_r8p_tS3dC-17" target="XB47ITi09C_r8p_tS3dC-43" edge="1">
          <mxGeometry width="50" height="50" relative="1" as="geometry">
            <mxPoint x="430" y="854.5" as="sourcePoint" />
            <mxPoint x="470" y="881.5" as="targetPoint" />
          </mxGeometry>
        </mxCell>
        <mxCell id="XB47ITi09C_r8p_tS3dC-48" value="" style="endArrow=blockThin;html=1;rounded=0;strokeWidth=1;endFill=1;exitX=0.5;exitY=0;exitDx=0;exitDy=0;entryX=0.5;entryY=1;entryDx=0;entryDy=0;" parent="1" source="XB47ITi09C_r8p_tS3dC-37" target="XB47ITi09C_r8p_tS3dC-43" edge="1">
          <mxGeometry width="50" height="50" relative="1" as="geometry">
            <mxPoint x="415" y="914.5" as="sourcePoint" />
            <mxPoint x="455" y="941.5" as="targetPoint" />
          </mxGeometry>
        </mxCell>
        <mxCell id="EQBwjj2KJEkhYj3dMZCi-3" value="" style="endArrow=blockThin;html=1;rounded=0;strokeWidth=1;endFill=1;exitX=1;exitY=0.5;exitDx=0;exitDy=0;entryX=0.5;entryY=1;entryDx=0;entryDy=0;" parent="1" source="XB47ITi09C_r8p_tS3dC-37" target="EQBwjj2KJEkhYj3dMZCi-1" edge="1">
          <mxGeometry width="50" height="50" relative="1" as="geometry">
            <mxPoint x="465" y="930.5" as="sourcePoint" />
            <mxPoint x="490" y="930.5" as="targetPoint" />
          </mxGeometry>
        </mxCell>
        <mxCell id="EQBwjj2KJEkhYj3dMZCi-4" value="" style="endArrow=blockThin;html=1;rounded=0;strokeWidth=1;endFill=1;exitX=1;exitY=0.5;exitDx=0;exitDy=0;entryX=0.5;entryY=0;entryDx=0;entryDy=0;" parent="1" source="XB47ITi09C_r8p_tS3dC-17" target="EQBwjj2KJEkhYj3dMZCi-1" edge="1">
          <mxGeometry width="50" height="50" relative="1" as="geometry">
            <mxPoint x="475" y="940.5" as="sourcePoint" />
            <mxPoint x="500" y="940.5" as="targetPoint" />
          </mxGeometry>
        </mxCell>
        <mxCell id="EQBwjj2KJEkhYj3dMZCi-6" value="" style="group;fillColor=default;fontSize=20;" parent="1" connectable="0" vertex="1">
          <mxGeometry x="658" y="894" width="50" height="25" as="geometry" />
        </mxCell>
        <mxCell id="EQBwjj2KJEkhYj3dMZCi-7" value="" style="endArrow=none;html=1;rounded=0;entryX=1;entryY=0;entryDx=0;entryDy=0;" parent="EQBwjj2KJEkhYj3dMZCi-6" target="EQBwjj2KJEkhYj3dMZCi-8" edge="1">
          <mxGeometry width="50" height="50" relative="1" as="geometry">
            <mxPoint y="4.166666666666667" as="sourcePoint" />
            <mxPoint x="50" y="4.166666666666667" as="targetPoint" />
            <Array as="points">
              <mxPoint x="25.38461538461538" y="4" />
              <mxPoint x="27.692307692307683" y="1.5" />
              <mxPoint x="46.92307692307692" y="1.5" />
            </Array>
          </mxGeometry>
        </mxCell>
        <mxCell id="EQBwjj2KJEkhYj3dMZCi-8" value="&lt;font style=&quot;font-size: 12px;&quot;&gt;ISE&lt;/font&gt;" style="shape=partialRectangle;whiteSpace=wrap;html=1;bottom=1;right=1;left=1;top=0;fillColor=none;routingCenterX=-0.5;fontSize=18;" parent="EQBwjj2KJEkhYj3dMZCi-6" vertex="1">
          <mxGeometry y="5.277777777777778" width="50" height="20.833333333333336" as="geometry" />
        </mxCell>
        <mxCell id="2JtB2OqjBHgqzNVbI8b7-8" value="" style="group;fillColor=default;fontSize=20;" parent="1" connectable="0" vertex="1">
          <mxGeometry x="58" y="894" width="50" height="25" as="geometry" />
        </mxCell>
        <mxCell id="2JtB2OqjBHgqzNVbI8b7-9" value="" style="endArrow=none;html=1;rounded=0;entryX=1;entryY=0;entryDx=0;entryDy=0;" parent="2JtB2OqjBHgqzNVbI8b7-8" target="2JtB2OqjBHgqzNVbI8b7-10" edge="1">
          <mxGeometry width="50" height="50" relative="1" as="geometry">
            <mxPoint y="4.166666666666667" as="sourcePoint" />
            <mxPoint x="50" y="4.166666666666667" as="targetPoint" />
            <Array as="points">
              <mxPoint x="25.38461538461538" y="4" />
              <mxPoint x="27.692307692307683" y="1.5" />
              <mxPoint x="46.92307692307692" y="1.5" />
            </Array>
          </mxGeometry>
        </mxCell>
        <mxCell id="2JtB2OqjBHgqzNVbI8b7-10" value="&lt;font style=&quot;font-size: 12px;&quot;&gt;GFE&lt;/font&gt;" style="shape=partialRectangle;whiteSpace=wrap;html=1;bottom=1;right=1;left=1;top=0;fillColor=none;routingCenterX=-0.5;fontSize=18;" parent="2JtB2OqjBHgqzNVbI8b7-8" vertex="1">
          <mxGeometry y="5.277777777777778" width="50" height="20.833333333333336" as="geometry" />
        </mxCell>
        <mxCell id="2JtB2OqjBHgqzNVbI8b7-14" value="Group Estimation(&lt;span class=&quot;Grek&quot; lang=&quot;und-Grek&quot;&gt;Ï, &lt;/span&gt;Ï)" style="rounded=0;whiteSpace=wrap;html=1;fontSize=12;" parent="1" vertex="1">
          <mxGeometry x="709" y="704" width="131" height="20" as="geometry" />
        </mxCell>
        <mxCell id="2JtB2OqjBHgqzNVbI8b7-20" value="" style="group;fillColor=default;fontSize=20;" parent="1" connectable="0" vertex="1">
          <mxGeometry x="758" y="894" width="50" height="25" as="geometry" />
        </mxCell>
        <mxCell id="2JtB2OqjBHgqzNVbI8b7-21" value="" style="endArrow=none;html=1;rounded=0;entryX=1;entryY=0;entryDx=0;entryDy=0;" parent="2JtB2OqjBHgqzNVbI8b7-20" target="2JtB2OqjBHgqzNVbI8b7-22" edge="1">
          <mxGeometry width="50" height="50" relative="1" as="geometry">
            <mxPoint y="4.166666666666667" as="sourcePoint" />
            <mxPoint x="50" y="4.166666666666667" as="targetPoint" />
            <Array as="points">
              <mxPoint x="25.38461538461538" y="4" />
              <mxPoint x="27.692307692307683" y="1.5" />
              <mxPoint x="46.92307692307692" y="1.5" />
            </Array>
          </mxGeometry>
        </mxCell>
        <mxCell id="2JtB2OqjBHgqzNVbI8b7-22" value="&lt;font style=&quot;font-size: 12px;&quot;&gt;GSE&lt;/font&gt;" style="shape=partialRectangle;whiteSpace=wrap;html=1;bottom=1;right=1;left=1;top=0;fillColor=none;routingCenterX=-0.5;fontSize=18;" parent="2JtB2OqjBHgqzNVbI8b7-20" vertex="1">
          <mxGeometry y="5.277777777777778" width="50" height="20.833333333333336" as="geometry" />
        </mxCell>
        <mxCell id="2JtB2OqjBHgqzNVbI8b7-23" value="&lt;font&gt;p&lt;/font&gt;" style="endArrow=blockThin;html=1;rounded=0;labelPosition=center;verticalLabelPosition=top;align=center;verticalAlign=bottom;spacingBottom=3;strokeWidth=1;endFill=1;exitX=1;exitY=0.5;exitDx=0;exitDy=0;entryX=0;entryY=0.5;entryDx=0;entryDy=0;fontSize=14;startArrow=blockThin;startFill=1;" parent="1" source="EQBwjj2KJEkhYj3dMZCi-8" target="2JtB2OqjBHgqzNVbI8b7-22" edge="1">
          <mxGeometry width="50" height="50" relative="1" as="geometry">
            <mxPoint x="768" y="854" as="sourcePoint" />
            <mxPoint x="928" y="854" as="targetPoint" />
          </mxGeometry>
        </mxCell>
        <mxCell id="2JtB2OqjBHgqzNVbI8b7-24" value="&lt;font&gt;p&lt;/font&gt;" style="endArrow=blockThin;html=1;rounded=0;labelPosition=center;verticalLabelPosition=top;align=center;verticalAlign=bottom;spacingBottom=6;strokeWidth=1;endFill=1;entryX=0;entryY=0.5;entryDx=0;entryDy=0;fontSize=14;spacingRight=9;" parent="1" target="XB47ITi09C_r8p_tS3dC-17" edge="1">
          <mxGeometry x="-0.2703" y="-4" width="50" height="50" relative="1" as="geometry">
            <mxPoint x="92" y="894" as="sourcePoint" />
            <mxPoint x="368" y="764" as="targetPoint" />
            <mxPoint as="offset" />
          </mxGeometry>
        </mxCell>
        <mxCell id="2JtB2OqjBHgqzNVbI8b7-25" value="&lt;font&gt;p&lt;/font&gt;" style="endArrow=blockThin;html=1;rounded=0;labelPosition=left;verticalLabelPosition=middle;align=right;verticalAlign=middle;spacingBottom=3;strokeWidth=1;endFill=1;exitX=0;exitY=0.5;exitDx=0;exitDy=0;entryX=0.5;entryY=1;entryDx=0;entryDy=0;startArrow=blockThin;startFill=1;fontSize=14;spacingRight=5;spacingTop=13;" parent="1" source="XB47ITi09C_r8p_tS3dC-37" target="2JtB2OqjBHgqzNVbI8b7-10" edge="1">
          <mxGeometry x="0.2069" y="1" width="50" height="50" relative="1" as="geometry">
            <mxPoint x="268" y="1064" as="sourcePoint" />
            <mxPoint x="428" y="1064" as="targetPoint" />
            <mxPoint as="offset" />
          </mxGeometry>
        </mxCell>
        <mxCell id="2JtB2OqjBHgqzNVbI8b7-31" value="ACC" style="rounded=0;whiteSpace=wrap;html=1;" parent="1" vertex="1">
          <mxGeometry x="403" y="1089" width="50" height="30" as="geometry" />
        </mxCell>
        <mxCell id="2JtB2OqjBHgqzNVbI8b7-33" style="edgeStyle=orthogonalEdgeStyle;rounded=0;orthogonalLoop=1;jettySize=auto;html=1;exitX=0.5;exitY=1;exitDx=0;exitDy=0;entryX=0;entryY=0.5;entryDx=0;entryDy=0;endArrow=blockThin;endFill=1;" parent="1" source="2JtB2OqjBHgqzNVbI8b7-10" target="2JtB2OqjBHgqzNVbI8b7-31" edge="1">
          <mxGeometry relative="1" as="geometry" />
        </mxCell>
        <mxCell id="2JtB2OqjBHgqzNVbI8b7-34" style="edgeStyle=orthogonalEdgeStyle;rounded=0;orthogonalLoop=1;jettySize=auto;html=1;exitX=0.5;exitY=1;exitDx=0;exitDy=0;entryX=1;entryY=0.5;entryDx=0;entryDy=0;endArrow=blockThin;endFill=1;" parent="1" source="2JtB2OqjBHgqzNVbI8b7-22" target="2JtB2OqjBHgqzNVbI8b7-31" edge="1">
          <mxGeometry relative="1" as="geometry" />
        </mxCell>
        <mxCell id="2JtB2OqjBHgqzNVbI8b7-40" value="PK" style="rounded=0;whiteSpace=wrap;html=1;" parent="1" vertex="1">
          <mxGeometry x="168" y="890.5" width="60" height="40" as="geometry" />
        </mxCell>
        <mxCell id="2JtB2OqjBHgqzNVbI8b7-41" value="&lt;font&gt;p&lt;/font&gt;" style="endArrow=blockThin;html=1;rounded=0;labelPosition=center;verticalLabelPosition=top;align=center;verticalAlign=bottom;spacingBottom=5;strokeWidth=1;endFill=1;exitX=1;exitY=1;exitDx=0;exitDy=0;entryX=0;entryY=0;entryDx=0;entryDy=0;fontSize=14;" parent="1" source="2JtB2OqjBHgqzNVbI8b7-40" target="XB47ITi09C_r8p_tS3dC-37" edge="1">
          <mxGeometry width="50" height="50" relative="1" as="geometry">
            <mxPoint x="298" y="864" as="sourcePoint" />
            <mxPoint x="458" y="864" as="targetPoint" />
          </mxGeometry>
        </mxCell>
        <mxCell id="2JtB2OqjBHgqzNVbI8b7-42" value="&lt;font&gt;p&lt;/font&gt;" style="endArrow=blockThin;html=1;rounded=0;labelPosition=center;verticalLabelPosition=top;align=center;verticalAlign=bottom;spacingBottom=3;strokeWidth=1;endFill=1;exitX=1;exitY=0.5;exitDx=0;exitDy=0;entryX=0;entryY=0.5;entryDx=0;entryDy=0;fontSize=14;" parent="1" source="2JtB2OqjBHgqzNVbI8b7-40" target="XB47ITi09C_r8p_tS3dC-42" edge="1">
          <mxGeometry width="50" height="50" relative="1" as="geometry">
            <mxPoint x="418" y="814" as="sourcePoint" />
            <mxPoint x="578" y="814" as="targetPoint" />
          </mxGeometry>
        </mxCell>
        <mxCell id="2JtB2OqjBHgqzNVbI8b7-43" value="&lt;font style=&quot;font-size: 14px;&quot;&gt;p&lt;/font&gt;" style="text;html=1;align=center;verticalAlign=middle;whiteSpace=wrap;rounded=0;" parent="1" vertex="1">
          <mxGeometry x="178" y="1077" width="60" height="30" as="geometry" />
        </mxCell>
        <mxCell id="2JtB2OqjBHgqzNVbI8b7-44" value="&lt;font style=&quot;font-size: 14px;&quot;&gt;p&lt;/font&gt;" style="text;html=1;align=center;verticalAlign=middle;whiteSpace=wrap;rounded=0;" parent="1" vertex="1">
          <mxGeometry x="598" y="1077" width="60" height="30" as="geometry" />
        </mxCell>
        <mxCell id="2JtB2OqjBHgqzNVbI8b7-47" value="ACC" style="rounded=0;whiteSpace=wrap;html=1;" parent="1" vertex="1">
          <mxGeometry x="457" y="565" width="50" height="30" as="geometry" />
        </mxCell>
        <mxCell id="2JtB2OqjBHgqzNVbI8b7-49" style="edgeStyle=orthogonalEdgeStyle;rounded=0;orthogonalLoop=1;jettySize=auto;html=1;exitX=0.5;exitY=1;exitDx=0;exitDy=0;entryX=0;entryY=0.5;entryDx=0;entryDy=0;endArrow=blockThin;endFill=1;" parent="1" source="Shn5P3ll9amkj_p7jJET-108" target="2JtB2OqjBHgqzNVbI8b7-47" edge="1">
          <mxGeometry relative="1" as="geometry" />
        </mxCell>
        <mxCell id="2JtB2OqjBHgqzNVbI8b7-50" style="edgeStyle=orthogonalEdgeStyle;rounded=0;orthogonalLoop=1;jettySize=auto;html=1;exitX=0.5;exitY=1;exitDx=0;exitDy=0;entryX=1;entryY=0.5;entryDx=0;entryDy=0;endArrow=blockThin;endFill=1;" parent="1" source="Shn5P3ll9amkj_p7jJET-104" target="2JtB2OqjBHgqzNVbI8b7-47" edge="1">
          <mxGeometry relative="1" as="geometry" />
        </mxCell>
        <mxCell id="2JtB2OqjBHgqzNVbI8b7-54" value="p&lt;sub&gt;1&lt;/sub&gt;" style="text;html=1;align=center;verticalAlign=middle;whiteSpace=wrap;rounded=0;fontSize=14;" parent="1" vertex="1">
          <mxGeometry x="296" y="551" width="60" height="30" as="geometry" />
        </mxCell>
        <mxCell id="2JtB2OqjBHgqzNVbI8b7-56" value="p&lt;span style=&quot;font-size: 11.6667px;&quot;&gt;&lt;sub&gt;2&amp;nbsp;&lt;/sub&gt;&lt;/span&gt;&amp;gt; p&lt;sub&gt;1&lt;/sub&gt;" style="text;html=1;align=center;verticalAlign=middle;whiteSpace=wrap;rounded=0;fontSize=14;" parent="1" vertex="1">
          <mxGeometry x="579" y="553" width="60" height="30" as="geometry" />
        </mxCell>
        <mxCell id="2JtB2OqjBHgqzNVbI8b7-57" value="&lt;span style=&quot;font-size: 10px;&quot;&gt;&quot;Collective Accuracy as the mean of the absolute deviations of all individual estimates from the true value&quot;&lt;/span&gt;" style="rounded=0;whiteSpace=wrap;html=1;fillColor=#FFFFFF;" parent="1" vertex="1">
          <mxGeometry x="408.5" y="443" width="147" height="68" as="geometry" />
        </mxCell>
        <mxCell id="2JtB2OqjBHgqzNVbI8b7-58" value="&lt;font style=&quot;font-size: 14px;&quot;&gt;n&lt;/font&gt;" style="endArrow=blockThin;html=1;rounded=0;labelPosition=right;verticalLabelPosition=middle;align=left;verticalAlign=middle;strokeWidth=1;endFill=1;exitX=0.5;exitY=0;exitDx=0;exitDy=0;entryX=0.5;entryY=1;entryDx=0;entryDy=0;spacingLeft=3;" parent="1" source="2JtB2OqjBHgqzNVbI8b7-47" target="2JtB2OqjBHgqzNVbI8b7-57" edge="1">
          <mxGeometry width="50" height="50" relative="1" as="geometry">
            <mxPoint x="578" y="521" as="sourcePoint" />
            <mxPoint x="738" y="521" as="targetPoint" />
          </mxGeometry>
        </mxCell>
        <mxCell id="2JtB2OqjBHgqzNVbI8b7-61" value="PK" style="rounded=0;whiteSpace=wrap;html=1;" parent="1" vertex="1">
          <mxGeometry x="938" y="880.5" width="60" height="40" as="geometry" />
        </mxCell>
        <mxCell id="2JtB2OqjBHgqzNVbI8b7-62" value="CONF" style="rounded=0;whiteSpace=wrap;html=1;" parent="1" vertex="1">
          <mxGeometry x="938" y="950.5" width="60" height="40" as="geometry" />
        </mxCell>
        <mxCell id="2JtB2OqjBHgqzNVbI8b7-63" value="&lt;font style=&quot;font-size: 10px;&quot;&gt;&quot;A persons prior knowledge&quot;&lt;/font&gt;" style="rounded=0;whiteSpace=wrap;html=1;fillColor=#FFFFFF;" parent="1" vertex="1">
          <mxGeometry x="1081" y="880.5" width="99" height="41" as="geometry" />
        </mxCell>
        <mxCell id="2JtB2OqjBHgqzNVbI8b7-65" value="WOA" style="rounded=0;whiteSpace=wrap;html=1;" parent="1" vertex="1">
          <mxGeometry x="938" y="1020.5" width="60" height="40" as="geometry" />
        </mxCell>
        <mxCell id="2JtB2OqjBHgqzNVbI8b7-66" value="&lt;font style=&quot;font-size: 10px;&quot;&gt;&quot;A persons confidence in her first estimate&quot;&lt;/font&gt;" style="rounded=0;whiteSpace=wrap;html=1;fillColor=#FFFFFF;" parent="1" vertex="1">
          <mxGeometry x="1081" y="943.75" width="99" height="53.5" as="geometry" />
        </mxCell>
        <mxCell id="2JtB2OqjBHgqzNVbI8b7-67" value="&lt;font style=&quot;font-size: 10px;&quot;&gt;&quot;The weight a person puts on advice (=social information)&quot;&lt;/font&gt;" style="rounded=0;whiteSpace=wrap;html=1;fillColor=#FFFFFF;" parent="1" vertex="1">
          <mxGeometry x="1081" y="1013" width="99" height="55" as="geometry" />
        </mxCell>
        <mxCell id="2JtB2OqjBHgqzNVbI8b7-71" value="&lt;font&gt;n&lt;/font&gt;" style="endArrow=blockThin;html=1;rounded=0;labelPosition=center;verticalLabelPosition=top;align=center;verticalAlign=bottom;strokeWidth=1;endFill=1;exitX=1;exitY=0.5;exitDx=0;exitDy=0;entryX=0;entryY=0.5;entryDx=0;entryDy=0;fontSize=14;spacingLeft=3;" parent="1" source="2JtB2OqjBHgqzNVbI8b7-61" target="2JtB2OqjBHgqzNVbI8b7-63" edge="1">
          <mxGeometry width="50" height="50" relative="1" as="geometry">
            <mxPoint x="1072" y="790" as="sourcePoint" />
            <mxPoint x="1072" y="840" as="targetPoint" />
          </mxGeometry>
        </mxCell>
        <mxCell id="2JtB2OqjBHgqzNVbI8b7-72" value="&lt;font&gt;n&lt;/font&gt;" style="endArrow=blockThin;html=1;rounded=0;labelPosition=center;verticalLabelPosition=top;align=center;verticalAlign=bottom;strokeWidth=1;endFill=1;exitX=1;exitY=0.5;exitDx=0;exitDy=0;entryX=0;entryY=0.5;entryDx=0;entryDy=0;fontSize=14;spacingLeft=3;" parent="1" edge="1">
          <mxGeometry width="50" height="50" relative="1" as="geometry">
            <mxPoint x="998" y="971" as="sourcePoint" />
            <mxPoint x="1081" y="971" as="targetPoint" />
          </mxGeometry>
        </mxCell>
        <mxCell id="2JtB2OqjBHgqzNVbI8b7-73" value="&lt;font&gt;n&lt;/font&gt;" style="endArrow=blockThin;html=1;rounded=0;labelPosition=center;verticalLabelPosition=top;align=center;verticalAlign=bottom;strokeWidth=1;endFill=1;exitX=1;exitY=0.5;exitDx=0;exitDy=0;entryX=0;entryY=0.5;entryDx=0;entryDy=0;fontSize=14;spacingLeft=3;" parent="1" edge="1">
          <mxGeometry width="50" height="50" relative="1" as="geometry">
            <mxPoint x="998" y="1041" as="sourcePoint" />
            <mxPoint x="1081" y="1041" as="targetPoint" />
          </mxGeometry>
        </mxCell>
        <mxCell id="2JtB2OqjBHgqzNVbI8b7-75" value="&lt;font style=&quot;font-size: 10px;&quot;&gt;&quot;The social information a person receives, the aggregate of the n - 1 other first estimations&quot;&lt;/font&gt;" style="rounded=0;whiteSpace=wrap;html=1;fillColor=#FFFFFF;" parent="1" vertex="1">
          <mxGeometry x="402" y="21" width="135" height="68" as="geometry" />
        </mxCell>
        <mxCell id="ELYpXDwXQh3LSaElUOv4-1" value="&lt;font&gt;p&lt;/font&gt;" style="endArrow=blockThin;html=1;rounded=0;labelPosition=center;verticalLabelPosition=top;align=center;verticalAlign=bottom;spacingBottom=3;strokeWidth=1;endFill=1;exitX=1;exitY=0.5;exitDx=0;exitDy=0;entryX=0;entryY=0.5;entryDx=0;entryDy=0;fontSize=14;" parent="1" source="EQBwjj2KJEkhYj3dMZCi-1" target="EQBwjj2KJEkhYj3dMZCi-8" edge="1">
          <mxGeometry width="50" height="50" relative="1" as="geometry">
            <mxPoint x="655" y="870" as="sourcePoint" />
            <mxPoint x="815" y="870" as="targetPoint" />
          </mxGeometry>
        </mxCell>
      </root>
    </mxGraphModel>
  </diagram>
</mxfile>
